<svg width="18" height="19" viewBox="0 0 18 19" fill="none" xmlns="http://www.w3.org/2000/svg">
<g clip-path="url(#clip0_3008_425)">
<path d="M0.75 16.7209H3.75V7.72095H0.75V16.7209ZM17.25 8.47095C17.25 7.64595 16.575 6.97095 15.75 6.97095H11.0175L11.73 3.54345L11.7525 3.30345C11.7525 2.99595 11.625 2.71095 11.4225 2.50845L10.6275 1.72095L5.6925 6.66345C5.415 6.93345 5.25 7.30845 5.25 7.72095V15.2209C5.25 16.0459 5.925 16.7209 6.75 16.7209H13.5C14.1225 16.7209 14.655 16.3459 14.88 15.8059L17.145 10.5184C17.2125 10.3459 17.25 10.1659 17.25 9.97095V8.47095Z" fill="#246AA3"/>
</g>
<defs>
<clipPath id="clip0_3008_425">
<rect width="18" height="18" fill="white" transform="translate(0 0.970947)"/>
</clipPath>
</defs>
</svg>
